# AST/ASF file generated using VICON BodyLanguage
# -----------------------------------------------
:version 1.10
:name VICON
:units
  mass 1.0
  length 0.45
  angle deg
:documentation
   .ast/.asf automatically generated from VICON data using
   VICON BodyBuilder and BodyLanguage model FoxedUp or BRILLIANT.MOD
:root
   order TX TY TZ RX RY RZ
   axis XYZ
   position 0 0 0  
   orientation 0 0 0 
:bonedata
  begin
     id 1 
     name lhipjoint
     direction 0.541323 -0.757556 0.364798 
     length 2.47576 
     axis 0 0 0  XYZ
  end
  begin
     id 2 
     name lfemur
     direction 0.34202 -0.939693 0  
     length 7.46493  
     axis 0 0 20  XYZ
    dof rx ry rz
    limits (-160.0 20.0)
           (-70.0 70.0)
           (-60.0 70.0)
  end
  begin
     id 3 
     name ltibia
     direction 0.34202 -0.939693 0   
     length 7.73805   
     axis 0 0 20   XYZ
    dof rx
    limits (-10.0 170.0)
  end
  begin
     id 4 
     name lfoot
     direction 0.107174 -0.294458 0.949636   
     length 2.25864   
     axis -90 7.62852e-016 20   XYZ
    dof rx rz
    limits (-45.0 90.0)
           (-70.0 20.0)
  end
  begin
     id 5 
     name ltoes
     direction 1.53606e-011 -4.21934e-011 1   
     length 1.12451   
     axis -90 7.62852e-016 20   XYZ
    dof rx
    limits (-90.0 20.0)
  end
  begin
     id 6 
     name rhipjoint
     direction -0.524745 -0.766967 0.36933   
     length 2.44538  
     axis 0 0 0  XYZ 
  end
  begin
     id 7 
     name rfemur
     direction -0.34202 -0.939693 0   
     length 7.61604   
     axis 0 0 -20   XYZ
    dof rx ry rz
    limits (-160.0 20.0)
           (-70.0 70.0)
           (-70.0 60.0)
  end
  begin
     id 8 
     name rtibia
     direction -0.34202 -0.939693 0   
     length 7.61056   
     axis 0 0 -20   XYZ
    dof rx
    limits (-10.0 170.0)
 end
 begin
     id 9 
     name rfoot
     direction -0.12616 -0.346623 0.929482   
     length 2.46372  
     axis -90 -7.62852e-016 -20   XYZ
    dof rx rz
    limits (-45.0 90.0)
           (-20.0 70.0)
  end
  begin
     id 10 
     name rtoes
     direction -1.53531e-011 -4.22004e-011 1   
     length 1.21611   
     axis -90 -7.62852e-016 -20   XYZ
    dof rx
    limits (-90.0 20.0)
  end
  begin
     id 11 
     name lowerback
     direction -0.000778023 0.997293 -0.0735223   
     length 2.06139   
     axis 0 0 0   XYZ
    dof rx ry rz
    limits (-20.0 45.0)
           (-30.0 30.0)
           (-30.0 30.0)
  end
  begin
     id 12 
     name upperback
     direction 0.0222598 0.999722 -0.0078355   
     length 2.06383   
     axis 0 0 0   XYZ
    dof rx ry rz
    limits (-20.0 45.0)
           (-30.0 30.0)
           (-30.0 30.0)
  end
  begin
     id 13 
     name thorax
     direction 0.0219654 0.999405 0.0265994   
     length 2.07163   
     axis 0 0 0   XYZ
    dof rx ry rz
    limits (-20.0 45.0)
           (-30.0 30.0)
           (-30.0 30.0)
  end
  begin
     id 14 
     name lowerneck
     direction 0.0213282 0.988147 0.15202   
     length 1.75969   
     axis 0 0 0   XYZ
    dof rx ry rz
    limits (-20.0 45.0)
           (-30.0 30.0)
           (-30.0 30.0)
  end
  begin
     id 15 
     name upperneck
     direction -0.0546456 0.982624 -0.177379   
     length 1.79244   
     axis 0 0 0   XYZ
    dof rx ry rz
    limits (-20.0 45.0)
           (-30.0 30.0)
           (-30.0 30.0)
  end
  begin
     id 16
     name head
     direction -0.0199987 0.996855 -0.076686  
     length 1.80555  
     axis 0 0 0   XYZ
    dof rx ry rz
    limits (-20.0 45.0)
           (-30.0 30.0)
           (-30.0 30.0)
  end
  begin
     id 17 
     name lclavicle
     direction 0.929565 0.363219 -0.063096  
     length 3.55722  
     axis 0 0 0   XYZ
    dof ry rz
    limits (-20.0 10.0)
           (0.0 20.0)
  end
  begin
     id 18 
     name lhumerus
     direction 1 -4.48993e-011 -2.36203e-027   
     length 4.92785   
     axis 180 -30 -90   XYZ
    dof rx ry rz
    limits (-60.0 90.0)
           (-90.0 90.0)
           (-90.0 90.0)
  end
  begin
     id 19
     name lradius
     direction 1 -4.48947e-011 2.02997e-027   
     length 3.44052   
     axis 180 -30 -90   XYZ
    dof rx
    limits (-10.0 170.0)
  end
  begin
     id 20
     name lwrist
     direction 1 -4.48962e-011 1.45991e-027   
     length 1.72026   
     axis 1.49639e-024 90 90   XYZ
    dof ry
    limits (-180.0 0.0)
 end
  begin
     id 21 
     name lhand
     direction 1 -4.48984e-011 2.91906e-027   
     length 0.654326   
     axis -1.863e-015 90 90   XYZ
    dof rx rz
    limits (-90.0 90.0)
           (-45.0 45.0)
  end
  begin
     id 22 
     name lfingers
     direction 1 -4.48961e-011 5.83968e-027   
     length 0.527534   
     axis -3.72598e-015 90 90   XYZ
    dof rx
    limits (0.0 90.0)
  end
  begin
     id 23
     name lthumb
     direction 0.707107 -6.34963e-011 0.707107   
     length 0.757437   
     axis -90 45 -6.68868e-015   XYZ
    dof rx rz
    limits (-45.0 45.0)
           (-45.0 45.0)
  end
  begin
     id 24 
     name rclavicle
     direction -0.902944 0.422599 -0.0781198   
     length 3.54432  
     axis 0 0 0   XYZ 
    dof ry rz
    limits (-10.0 20.0)
           (-20.0 0.0)
  end
  begin
     id 25 
     name rhumerus
     direction -1 -4.48953e-011 -4.75835e-028  
     length 5.09181   
     axis 180 30 90   XYZ
    dof rx ry rz
    limits (-90.0 60.0)
           (-90.0 90.0)
           (-90.0 90.0)
  end
  begin
     id 26 
     name rradius
     direction -1 -4.48986e-011 -3.25889e-027   
     length 3.49865   
     axis 180 30 90   XYZ
    dof rx
    limits (-10.0 170.0)
  end
  begin
     id 27 
     name rwrist
     direction -1 -4.48963e-011 1.45989e-027   
     length 1.74933   
     axis 1.49639e-024 -90 -90   XYZ
    dof ry
    limits (-180.0 0.0)
  end
  begin
     id 28
     name rhand
     direction -1 -4.49003e-011 2.91844e-027   
     length 0.66641   
     axis -1.863e-015 -90 -90   XYZ
    dof rx rz
    limits (-90.0 90.0)
           (-45.0 45.0)
  end
  begin
     id 29
     name rfingers
     direction -1 -4.48973e-011 5.83886e-027   
     length 0.537277   
     axis -3.72598e-015 -90 -90   XYZ
    dof rx
    limits (0.0 90.0)
  end
  begin
     id 30
     name rthumb
     direction -0.707107 -6.34976e-011 0.707107   
     length 0.771425   
     axis -90 -45 6.68868e-015   XYZ
    dof rx rz
    limits (-45.0 45.0)
           (-45.0 45.0)
  end
:hierarchy
  begin
    root lhipjoint rhipjoint lowerback
    lhipjoint lfemur
    lfemur ltibia
    ltibia lfoot
    lfoot ltoes
    rhipjoint rfemur
    rfemur rtibia
    rtibia rfoot
    rfoot rtoes
    lowerback upperback
    upperback thorax
    thorax lowerneck lclavicle rclavicle
    lowerneck upperneck
    upperneck head
    lclavicle lhumerus
    lhumerus lradius
    lradius lwrist
    lwrist lhand lthumb
    lhand lfingers
    rclavicle rhumerus
    rhumerus rradius
    rradius rwrist
    rwrist rhand rthumb
    rhand rfingers
  end

#!OML:ASF H:\LiuWeirdWalks\Patient Classification 1\Patient 1\Session 1\male.ASF
:FULLY-SPECIFIED
:DEGREES
1
root -0.104327 17.9187 -26.7251 3.46349 47.9139 0.781912
lowerback 1.03773 6.2852 2.16478
upperback 0.202632 8.44191 3.04357
thorax -0.518296 4.22959 1.78847
lowerneck 2.27778 21.6889 10.1596
upperneck 10.4912 30.65 -10.0216
head 5.91594 15.1896 -2.36941
rclavicle -1.32689e-013 -3.18055e-015
rhumerus -28.7636 -5.83271 -67.8321
rradius 47.1973
rwrist -18.9946
rhand -16.7835 0.307076
rfingers 7.12502
rthumb 9.44423 -29.4613
lclavicle -1.32689e-013 -3.18055e-015
lhumerus -40.4593 32.3175 60.9206
lradius 19.4662
lwrist -5.34838
lhand -16.8973 5.89966
lfingers 7.12502
lthumb 9.3344 35.673
rfemur 0.914474 -21.883 17.9863
rtibia 24.6791
rfoot -23.8577 -47.9849
rtoes 6.46636
lfemur -18.5889 -16.8801 -12.0728
ltibia 25.3703
lfoot -10.0354 -8.95189
ltoes -9.57289
2
root -0.104583 17.9148 -26.7136 3.22663 47.9935 0.769774
lowerback 2.17866 8.37922 3.52699
upperback -1.08851 11.3017 0.672528
thorax -1.79084 5.6035 -1.59948
lowerneck 3.80492 19.4443 15.0212
upperneck 8.62 27.3674 -9.37898
head 5.306 13.7889 -3.31675
rclavicle -1.85413e-014 4.77083e-015
rhumerus -33.5825 -12.694 -67.8737
rradius 48.7495
rwrist -18.4702
rhand -16.7817 0.368968
rfingers 7.12502
rthumb 9.44597 -29.3993
lclavicle -1.85413e-014 4.77083e-015
lhumerus -37.2385 24.9314 61.4674
lradius 18.3565
lwrist -5.53886
lhand -16.7623 5.62151
lfingers 7.12502
lthumb 9.46473 35.389
rfemur 1.27367 -21.9109 17.93
rtibia 24.6193
rfoot -24.105 -47.9855
rtoes 6.50512
lfemur -18.301 -16.9537 -12.118
ltibia 25.3792
lfoot -10.1092 -8.93857
ltoes -9.55911
3
root -0.103145 17.911 -26.7146 3.25496 47.9162 1.02141
lowerback 2.4052 8.57947 3.40864
upperback -1.06686 11.5688 0.468666
thorax -1.86171 5.73532 -1.77979
lowerneck 3.34426 19.3786 15.0556
upperneck 8.92934 27.2152 -9.14567
head 5.42823 13.7035 -3.21323
rclavicle 1.05982e-013 -1.59028e-015
rhumerus -32.8355 -12.4286 -67.8984
rradius 48.6711
rwrist -18.794
rhand -16.8278 0.437427
rfingers 7.12502
rthumb 9.40146 -29.3329
lclavicle 1.05982e-013 -1.59028e-015
lhumerus -37.4129 25.3897 60.7541
lradius 17.9396
lwrist -6.08269
lhand -16.9439 5.87206
lfingers 7.12502
lthumb 9.28943 35.6474
rfemur 1.49554 -22.045 17.5987
rtibia 24.6039
rfoot -23.8541 -47.8305
rtoes 6.41075
lfemur -18.0891 -16.9743 -12.3873
ltibia 25.3962
lfoot -10.1434 -8.81127
ltoes -9.5866
4
root -0.104273 17.9106 -26.7127 3.04583 47.6208 0.871459
lowerback 2.46928 8.45786 3.31462
upperback -0.922058 11.4087 0.755714
thorax -1.83207 5.66015 -1.44231
lowerneck 3.30888 19.5985 14.6013
upperneck 9.19917 27.5802 -9.38396
head 5.53557 13.8646 -3.1679
rclavicle 2.10438e-014 -9.54166e-015
rhumerus -32.4323 -11.1981 -68.1135
rradius 49.3326
rwrist -19.1162
rhand -16.9406 0.582888
rfingers 7.12502
rthumb 9.29265 -29.1923
lclavicle 2.10438e-014 -9.54166e-015
lhumerus -38.4145 26.6425 60.1126
lradius 17.8001
lwrist -6.75146
lhand -16.5361 5.57144
lfingers 7.12502
lthumb 9.68295 35.3289
rfemur 1.58219 -21.8297 17.657
rtibia 24.5727
rfoot -23.7287 -47.7883
rtoes 6.37202
lfemur -17.9114 -16.8974 -12.3136
ltibia 25.4123
lfoot -10.1388 -8.56935
ltoes -9.66742
5
root -0.104331 17.9091 -26.7093 2.94476 47.48 0.864248
lowerback 2.68273 8.69252 3.36025
upperback -1.00607 11.7299 0.568412
thorax -1.97478 5.81451 -1.70063
lowerneck 3.34859 19.4287 14.9658
upperneck 9.10611 27.3473 -9.40995
head 5.5249 13.7597 -3.24755
rclavicle 9.69231e-015 -1.03368e-014
rhumerus -32.7582 -11.4183 -68.254
rradius 49.9979
rwrist -19.1437
rhand -16.9861 0.706199
rfingers 7.12502
rthumb 9.24873 -29.071
lclavicle 9.69231e-015 -1.03368e-014
lhumerus -38.6142 26.5114 59.6563
lradius 17.5132
lwrist -7.1388
lhand -16.3628 5.44657
lfingers 7.12502
lthumb 9.85018 35.1962
rfemur 1.69942 -21.7624 17.6065
rtibia 24.5599
rfoot -23.6709 -47.7344
rtoes 6.34032
lfemur -17.7568 -16.8733 -12.3439
ltibia 25.4214
lfoot -10.1605 -8.43109
ltoes -9.68391
6
root -0.103975 17.9086 -26.7069 2.88813 47.329 0.85044
lowerback 2.75946 8.76395 3.31348
upperback -0.992201 11.826 0.559246
thorax -2.0056 5.8623 -1.69968
lowerneck 3.32325 19.4363 14.9678
upperneck 9.125 27.3703 -9.49725
head 5.55033 13.7675 -3.26359
rclavicle -3.03349e-014 -1.59028e-015
rhumerus -32.7534 -11.1307 -68.4499
rradius 50.5761
rwrist -19.1462
rhand -17.025 0.850379
rfingers 7.12502
rthumb 9.21126 -28.9284
lclavicle -3.03349e-014 -1.59028e-015
lhumerus -39.1084 26.9559 59.1499
lradius 17.3305
lwrist -7.46216
lhand -16.1798 5.30611
lfingers 7.12502
lthumb 10.0267 35.0473
rfemur 1.7701 -21.6898 17.5799
rtibia 24.5079
rfoot -23.5665 -47.6869
rtoes 6.31043
lfemur -17.6645 -16.8402 -12.3542
ltibia 25.4382
lfoot -10.1801 -8.29261
ltoes -9.6918
7
root -0.104049 17.9086 -26.7026 2.80355 47.1762 0.780204
lowerback 2.81427 8.83414 3.29523
upperback -0.984362 11.9206 0.550428
thorax -2.02508 5.90927 -1.7098
lowerneck 3.31088 19.4465 14.9854
upperneck 9.10522 27.3934 -9.58192
head 5.56323 13.776 -3.28367
rclavicle 1.39472e-014 -9.54166e-015
rhumerus -32.6597 -10.8314 -68.6549
rradius 50.9965
rwrist -19.1941
rhand -17.0436 0.983543
rfingers 7.12502
rthumb 9.19329 -28.7961
lclavicle 1.39472e-014 -9.54166e-015
lhumerus -39.5817 27.3623 58.675
lradius 17.1854
lwrist -7.75361
lhand -16.0181 5.14991
lfingers 7.12502
lthumb 10.1827 34.8835
rfemur 1.82464 -21.5693 17.6225
rtibia 24.452
rfoot -23.5209 -47.674
rtoes 6.29533
lfemur -17.5821 -16.7845 -12.3098
ltibia 25.4455
lfoot -10.204 -8.17973
ltoes -9.68839
8
root -0.10405 17.9088 -26.6976 2.72455 47.0437 0.700243
lowerback 2.84857 8.90353 3.28688
upperback -0.98261 12.0135 0.526377
thorax -2.03434 5.95535 -1.73702
lowerneck 3.2985 19.4534 15.0156
upperneck 9.05167 27.4045 -9.64653
head 5.56283 13.7794 -3.30302
rclavicle -1.2124e-013 -4.77083e-015
rhumerus -32.5688 -10.5851 -68.8748
rradius 51.33
rwrist -19.1869
rhand -17.0897 1.10873
rfingers 7.12502
rthumb 9.14874 -28.6728
lclavicle -1.2124e-013 -4.77083e-015
lhumerus -40.0165 27.7397 58.2255
lradius 17.0745
lwrist -7.99439
lhand -15.8616 4.98794
lfingers 7.12502
lthumb 10.3337 34.714
rfemur 1.87584 -21.4465 17.6865
rtibia 24.3808
rfoot -23.4905 -47.6802
rtoes 6.287
lfemur -17.5172 -16.7257 -12.2503
ltibia 25.4522
lfoot -10.2354 -8.09328
ltoes -9.67828
9
root -0.103994 17.9089 -26.6925 2.62872 46.9083 0.607725
lowerback 2.88807 8.97313 3.29873
upperback -0.979889 12.1073 0.493201
thorax -2.03931 6.00165 -1.78421
lowerneck 3.26649 19.4597 15.0458
upperneck 9.0165 27.4105 -9.68707
head 5.56723 13.7801 -3.31365
rclavicle -2.75427e-014 -3.97569e-015
rhumerus -32.3581 -10.307 -69.0842
rradius 51.4736
rwrist -19.2437
rhand -17.0756 1.18568
rfingers 7.12502
rthumb 9.16237 -28.5953
lclavicle -2.75427e-014 -3.97569e-015
lhumerus -40.4104 28.06 57.8398
lradius 17.0017
lwrist -8.16257
lhand -15.7621 4.86167
lfingers 7.12502
lthumb 10.4297 34.583
rfemur 1.94301 -21.3125 17.7598
rtibia 24.2952
rfoot -23.4506 -47.6956
rtoes 6.27321
lfemur -17.4423 -16.6761 -12.182
ltibia 25.4604
lfoot -10.2705 -7.99717
ltoes -9.66453
10
root -0.104146 17.9085 -26.6865 2.5122 46.7674 0.505781
lowerback 2.93348 9.04302 3.31035
upperback -0.97263 12.2017 0.461121
thorax -2.04295 6.04828 -1.83079
lowerneck 3.25958 19.48 15.0366
upperneck 8.90498 27.426 -9.70369
head 5.53603 13.7862 -3.32002
rclavicle -5.84939e-015 -1.03368e-014
rhumerus -32.3169 -10.1057 -69.3148
rradius 51.6951
rwrist -19.1817
rhand -17.1054 1.27132
rfingers 7.12502
rthumb 9.13362 -28.5109
lclavicle -5.84939e-015 -1.03368e-014
lhumerus -40.768 28.3248 57.5255
lradius 16.9683
lwrist -8.26224
lhand -15.6728 4.74151
lfingers 7.12502
lthumb 10.5158 34.4585
rfemur 2.02972 -21.1591 17.8411
rtibia 24.2076
rfoot -23.4289 -47.7212
rtoes 6.26217
lfemur -17.3471 -16.6099 -12.1099
ltibia 25.468
lfoot -10.315 -7.91347
ltoes -9.65297
11
root -0.104144 17.9079 -26.6807 2.40404 46.6292 0.423847
lowerback 2.98128 9.10968 3.30579
upperback -0.961455 12.2911 0.430902
thorax -2.04768 6.09271 -1.86737
lowerneck 3.30417 19.5046 15.007
upperneck 8.70618 27.4455 -9.73021
head 5.46847 13.7956 -3.33688
rclavicle -4.20523e-014 4.37326e-015
rhumerus -32.4013 -9.99484 -69.5695
rradius 51.9489
rwrist -18.9945
rhand -17.1254 1.35092
rfingers 7.12502
rthumb 9.11432 -28.4321
lclavicle -4.20523e-014 4.37326e-015
lhumerus -41.0624 28.4289 57.3855
lradius 16.9959
lwrist -8.11952
lhand -15.6409 4.68805
lfingers 7.12502
lthumb 10.5465 34.4034
rfemur 2.12479 -21.012 17.9017
rtibia 24.1244
rfoot -23.4075 -47.7416
rtoes 6.25031
lfemur -17.2428 -16.5505 -12.0566
ltibia 25.4741
lfoot -10.3625 -7.82434
ltoes -9.64915
